<?xml version="1.0" encoding="utf-8"?>
<!-- Generator: Adobe Illustrator 13.0.0, SVG Export Plug-In . SVG Version: 6.00 Build 14948)  -->
<!DOCTYPE svg PUBLIC "-//W3C//DTD SVG 1.1//EN" "http://www.w3.org/Graphics/SVG/1.1/DTD/svg11.dtd">
<svg version="1.1" id="Layer_1" xmlns="http://www.w3.org/2000/svg" xmlns:xlink="http://www.w3.org/1999/xlink" x="0px" y="0px"
	 width="405.661px" height="316.98px" viewBox="0 0 405.661 316.98" enable-background="new 0 0 405.661 316.98"
	 xml:space="preserve">
<rect y="-0.944" fill="#FFFFFF" width="406.604" height="317.924"/>
<g>
	<path fill-rule="evenodd" clip-rule="evenodd" d="M112.956,205.125c5.281-17.05,11.402-33.26,16.998-49.994
		c-37.095-64.878,8.812-137.915,70.991-143.982c58.707-5.729,106.841,36.439,106.987,93.988
		c0.153,60.723-58.74,111.713-124.985,90.988c-4.997-1.563-11.18-6.657-16.998-6.999c-8.131-0.479-18.787,5.359-26.997,7.999
		C129.953,200.02,122.128,202.921,112.956,205.125z M167.949,171.129c53.495,32.466,117.551-3.949,122.985-56.993
		c4.918-48.019-33.424-90.745-84.99-86.989c-58.87,4.287-94.232,74.559-57.993,125.984c-3.208,8.791-6.21,17.788-8.999,26.997
		C148.774,177.284,157.828,173.673,167.949,171.129z"/>
	<path fill-rule="evenodd" clip-rule="evenodd" fill="#FFFFFF" d="M138.953,180.128c2.789-9.209,5.791-18.206,8.999-26.997
		c-36.24-51.425-0.877-121.697,57.993-125.984c51.566-3.756,89.908,38.97,84.99,86.989c-5.434,53.043-69.49,89.458-122.985,56.993
		C157.828,173.673,148.774,177.284,138.953,180.128z M165.95,95.139c8.578,24.126,44.126,56.803,69.991,57.993
		c12.26,0.564,26.755-5.796,25.996-22.997c-7.382-5.283-15.892-9.438-24.996-12.998c-4.358,4.307-7.783,9.548-12.999,12.998
		c-15.685-6.979-27.717-17.61-34.995-32.996c14.331-7.816,5.627-25.226,0-36.996C166.714,53.444,160.86,80.824,165.95,95.139z"/>
	<path fill-rule="evenodd" clip-rule="evenodd" d="M188.947,60.143c5.627,11.77,14.331,29.179,0,36.996
		c7.278,15.386,19.311,26.017,34.995,32.996c5.216-3.45,8.641-8.691,12.999-12.998c9.104,3.561,17.614,7.715,24.996,12.998
		c0.759,17.201-13.736,23.562-25.996,22.997c-25.865-1.19-61.414-33.867-69.991-57.993C160.86,80.824,166.714,53.444,188.947,60.143
		z"/>
</g>
<g>
	<path d="M26.764,292.21l-13.303-55.722h11.517l8.4,38.275l10.187-38.275h13.379l9.769,38.922l8.552-38.922h11.327L73.06,292.21
		H61.125l-11.099-41.658L38.965,292.21H26.764z"/>
	<path d="M102.118,236.488v20.487c3.446-4.029,7.564-6.044,12.353-6.044c2.458,0,4.675,0.456,6.652,1.368
		c1.976,0.913,3.464,2.078,4.466,3.497c1.001,1.42,1.685,2.99,2.053,4.713c0.367,1.724,0.551,4.397,0.551,8.021v23.68h-10.681
		v-21.323c0-4.231-0.203-6.918-0.608-8.058c-0.406-1.141-1.121-2.046-2.147-2.718c-1.026-0.671-2.313-1.008-3.858-1.008
		c-1.774,0-3.358,0.432-4.751,1.293s-2.414,2.16-3.06,3.896c-0.646,1.736-0.969,4.302-0.969,7.697v20.221H91.438v-55.722H102.118z"
		/>
	<path d="M146.229,264.159l-9.692-1.748c1.089-3.902,2.965-6.791,5.625-8.667c2.661-1.875,6.613-2.813,11.859-2.813
		c4.764,0,8.311,0.564,10.643,1.691c2.331,1.128,3.972,2.56,4.922,4.295c0.95,1.736,1.425,4.923,1.425,9.56l-0.114,12.467
		c0,3.548,0.171,6.164,0.513,7.85s0.982,3.49,1.919,5.416h-10.566c-0.279-0.709-0.622-1.761-1.026-3.154
		c-0.178-0.634-0.304-1.052-0.38-1.255c-1.825,1.774-3.776,3.104-5.854,3.991c-2.078,0.887-4.295,1.33-6.652,1.33
		c-4.156,0-7.431-1.127-9.825-3.383c-2.395-2.255-3.592-5.105-3.592-8.552c0-2.281,0.544-4.314,1.634-6.101
		c1.089-1.786,2.616-3.155,4.58-4.105c1.963-0.95,4.795-1.779,8.495-2.489c4.992-0.938,8.45-1.812,10.376-2.623v-1.063
		c0-2.053-0.507-3.517-1.521-4.391c-1.014-0.874-2.927-1.312-5.739-1.312c-1.9,0-3.383,0.374-4.447,1.122
		C147.75,260.973,146.888,262.284,146.229,264.159z M160.521,272.825c-1.368,0.456-3.535,1.001-6.5,1.635s-4.903,1.254-5.815,1.862
		c-1.394,0.988-2.091,2.242-2.091,3.763c0,1.495,0.557,2.788,1.673,3.877c1.115,1.09,2.533,1.635,4.257,1.635
		c1.925,0,3.763-0.634,5.511-1.9c1.292-0.963,2.141-2.142,2.547-3.535c0.278-0.912,0.418-2.647,0.418-5.207V272.825z"/>
	<path d="M199.271,251.844v8.515h-7.297v16.268c0,3.295,0.069,5.214,0.209,5.759c0.139,0.545,0.456,0.994,0.95,1.35
		c0.494,0.354,1.096,0.531,1.805,0.531c0.988,0,2.42-0.342,4.295-1.025l0.912,8.285c-2.484,1.064-5.296,1.597-8.438,1.597
		c-1.926,0-3.662-0.323-5.208-0.969c-1.546-0.646-2.68-1.482-3.402-2.509s-1.223-2.414-1.501-4.162
		c-0.228-1.241-0.342-3.75-0.342-7.526v-17.598h-4.903v-8.515h4.903v-8.02l10.719-6.233v14.253H199.271z"/>
	<path d="M202.142,280.693l10.719-1.635c0.456,2.078,1.381,3.655,2.774,4.732s3.345,1.615,5.854,1.615
		c2.762,0,4.84-0.507,6.233-1.521c0.938-0.709,1.406-1.659,1.406-2.851c0-0.811-0.254-1.482-0.76-2.015
		c-0.532-0.507-1.724-0.975-3.573-1.406c-8.615-1.9-14.076-3.636-16.382-5.207c-3.193-2.179-4.79-5.207-4.79-9.084
		c0-3.497,1.381-6.437,4.143-8.818c2.762-2.382,7.044-3.573,12.848-3.573c5.523,0,9.629,0.9,12.314,2.699s4.536,4.46,5.55,7.981
		l-10.072,1.862c-0.432-1.57-1.249-2.774-2.452-3.61c-1.204-0.836-2.921-1.255-5.15-1.255c-2.813,0-4.827,0.394-6.043,1.179
		c-0.812,0.558-1.217,1.28-1.217,2.166c0,0.761,0.354,1.407,1.064,1.938c0.963,0.71,4.288,1.711,9.978,3.003
		c5.688,1.293,9.66,2.877,11.916,4.751c2.229,1.901,3.345,4.549,3.345,7.944c0,3.7-1.546,6.88-4.638,9.54
		c-3.092,2.661-7.665,3.991-13.721,3.991c-5.499,0-9.852-1.114-13.057-3.345C205.227,287.548,203.13,284.52,202.142,280.693z"/>
	<path d="M298.744,292.21h-12.239l-4.865-12.657h-22.273l-4.6,12.657h-11.935l21.703-55.722h11.897L298.744,292.21z
		 M278.028,270.165l-7.678-20.678l-7.525,20.678H278.028z"/>
	<path d="M303.552,251.844h9.959v5.93c1.292-2.027,3.04-3.674,5.245-4.941c2.204-1.267,4.649-1.9,7.336-1.9
		c4.688,0,8.666,1.838,11.935,5.512s4.903,8.793,4.903,15.355c0,6.741-1.647,11.979-4.941,15.717
		c-3.294,3.738-7.285,5.606-11.973,5.606c-2.23,0-4.251-0.443-6.063-1.33c-1.813-0.887-3.719-2.407-5.721-4.562v20.335h-10.681
		V251.844z M314.119,271.343c0,4.536,0.899,7.887,2.699,10.054c1.799,2.166,3.99,3.25,6.575,3.25c2.483,0,4.548-0.994,6.195-2.984
		c1.647-1.988,2.471-5.251,2.471-9.787c0-4.231-0.849-7.374-2.547-9.427c-1.697-2.052-3.801-3.078-6.309-3.078
		c-2.61,0-4.777,1.007-6.5,3.021C314.98,264.406,314.119,267.39,314.119,271.343z"/>
	<path d="M350.324,251.844h9.959v5.93c1.292-2.027,3.04-3.674,5.245-4.941c2.204-1.267,4.649-1.9,7.336-1.9
		c4.688,0,8.666,1.838,11.935,5.512s4.903,8.793,4.903,15.355c0,6.741-1.647,11.979-4.941,15.717
		c-3.294,3.738-7.285,5.606-11.973,5.606c-2.23,0-4.251-0.443-6.063-1.33c-1.813-0.887-3.719-2.407-5.721-4.562v20.335h-10.681
		V251.844z M360.89,271.343c0,4.536,0.899,7.887,2.699,10.054c1.799,2.166,3.99,3.25,6.575,3.25c2.483,0,4.548-0.994,6.195-2.984
		c1.647-1.988,2.471-5.251,2.471-9.787c0-4.231-0.849-7.374-2.547-9.427c-1.697-2.052-3.801-3.078-6.309-3.078
		c-2.61,0-4.777,1.007-6.5,3.021C361.751,264.406,360.89,267.39,360.89,271.343z"/>
</g>
</svg>
